<svg width="48" height="48" viewBox="0 0 48 48" fill="none" xmlns="http://www.w3.org/2000/svg">
<path d="M20.0397 5.60563C17.8878 3.46479 14.3956 3.46479 12.2436 5.60563L1.61398 16.1803C-0.537992 18.3212 -0.537992 21.7953 1.61398 23.9361L12.2436 34.5109C14.3956 36.6517 17.8878 36.6517 20.0397 34.5109L30.6694 23.9361C32.8213 21.7953 32.8213 18.3212 30.6694 16.1803L20.0397 5.60563ZM14.3037 20.0582C14.3037 19.5733 14.4973 19.1082 14.842 18.7653C15.1867 18.4224 15.6542 18.2298 16.1417 18.2298C16.6291 18.2298 17.0966 18.4224 17.4413 18.7653C17.786 19.1082 17.9797 19.5733 17.9797 20.0582C17.9797 20.5432 17.786 21.0083 17.4413 21.3512C17.0966 21.6941 16.6291 21.8867 16.1417 21.8867C15.6542 21.8867 15.1867 21.6941 14.842 21.3512C14.4973 21.0083 14.3037 20.5432 14.3037 20.0582ZM6.33912 18.2298C6.82658 18.2298 7.29408 18.4224 7.63877 18.7653C7.98345 19.1082 8.1771 19.5733 8.1771 20.0582C8.1771 20.5432 7.98345 21.0083 7.63877 21.3512C7.29408 21.6941 6.82658 21.8867 6.33912 21.8867C5.85165 21.8867 5.38416 21.6941 5.03947 21.3512C4.69478 21.0083 4.50114 20.5432 4.50114 20.0582C4.50114 19.5733 4.69478 19.1082 5.03947 18.7653C5.38416 18.4224 5.85165 18.2298 6.33912 18.2298ZM16.1417 31.6386C15.6542 31.6386 15.1867 31.446 14.842 31.1031C14.4973 30.7602 14.3037 30.2951 14.3037 29.8101C14.3037 29.3252 14.4973 28.8601 14.842 28.5172C15.1867 28.1743 15.6542 27.9817 16.1417 27.9817C16.6291 27.9817 17.0966 28.1743 17.4413 28.5172C17.786 28.8601 17.9797 29.3252 17.9797 29.8101C17.9797 30.2951 17.786 30.7602 17.4413 31.1031C17.0966 31.446 16.6291 31.6386 16.1417 31.6386ZM25.9442 18.2298C26.4317 18.2298 26.8992 18.4224 27.2439 18.7653C27.5886 19.1082 27.7822 19.5733 27.7822 20.0582C27.7822 20.5432 27.5886 21.0083 27.2439 21.3512C26.8992 21.6941 26.4317 21.8867 25.9442 21.8867C25.4568 21.8867 24.9893 21.6941 24.6446 21.3512C24.2999 21.0083 24.1063 20.5432 24.1063 20.0582C24.1063 19.5733 24.2999 19.1082 24.6446 18.7653C24.9893 18.4224 25.4568 18.2298 25.9442 18.2298ZM16.1417 12.1348C15.6542 12.1348 15.1867 11.9422 14.842 11.5993C14.4973 11.2564 14.3037 10.7913 14.3037 10.3064C14.3037 9.82141 14.4973 9.35633 14.842 9.01342C15.1867 8.67051 15.6542 8.47787 16.1417 8.47787C16.6291 8.47787 17.0966 8.67051 17.4413 9.01342C17.786 9.35633 17.9797 9.82141 17.9797 10.3064C17.9797 10.7913 17.786 11.2564 17.4413 11.5993C17.0966 11.9422 16.6291 12.1348 16.1417 12.1348ZM23.4936 37.1241C23.4936 39.8134 25.6915 42 28.3949 42H43.0987C45.8021 42 48 39.8134 48 37.1241V22.4962C48 19.8068 45.8021 17.6203 43.0987 17.6203H34.3453C35.2337 20.363 34.5827 23.4866 32.4001 25.658L23.4936 34.5185V37.1241ZM35.7468 27.9817C36.2343 27.9817 36.7018 28.1743 37.0464 28.5172C37.3911 28.8601 37.5848 29.3252 37.5848 29.8101C37.5848 30.2951 37.3911 30.7602 37.0464 31.1031C36.7018 31.446 36.2343 31.6386 35.7468 31.6386C35.2593 31.6386 34.7918 31.446 34.4472 31.1031C34.1025 30.7602 33.9088 30.2951 33.9088 29.8101C33.9088 29.3252 34.1025 28.8601 34.4472 28.5172C34.7918 28.1743 35.2593 27.9817 35.7468 27.9817Z" fill="black"/>
</svg>
