<svg width="49" height="11" viewBox="0 0 49 11" fill="none" xmlns="http://www.w3.org/2000/svg">
<path d="M8.87961 7.0275C8.51865 7.0275 8.18176 7.12377 7.89299 7.29223L7.00262 6.3777C7.19513 6.0889 7.29139 5.75196 7.29139 5.39096C7.29139 5.02996 7.19513 4.69302 7.00262 4.40422L7.89299 3.48968C8.18176 3.65815 8.51865 3.75442 8.85555 3.75442C9.91436 3.75442 10.7566 2.91208 10.7566 1.87721C10.7566 0.842337 9.91436 0 8.85555 0C7.8208 0 6.97856 0.842337 6.97856 1.87721C6.97856 2.23821 7.07481 2.57515 7.26732 2.86395L6.37696 3.77848C6.08819 3.61002 5.75129 3.51375 5.4144 3.51375C4.35558 3.51375 3.51334 4.35609 3.51334 5.39096C3.51334 5.75196 3.6096 6.0889 3.80211 6.3777L2.91174 7.29223C2.62297 7.12377 2.28608 7.0275 1.94918 7.0275C0.84224 7.0275 0 7.86984 0 8.90471C0 9.93958 0.84224 10.7819 1.90106 10.7819C2.95987 10.7819 3.80211 9.93958 3.80211 8.90471C3.80211 8.54371 3.70585 8.20677 3.51334 7.91797L4.40371 7.00343C4.69248 7.1719 5.02937 7.26817 5.36627 7.26817C5.72723 7.26817 6.04006 7.1719 6.32883 7.00343L7.2192 7.91797C7.07481 8.20677 6.97856 8.54371 6.97856 8.90471C6.97856 9.93958 7.8208 10.7819 8.87961 10.7819C9.93843 10.7819 10.7807 9.93958 10.7807 8.90471C10.7807 7.86984 9.91436 7.0275 8.87961 7.0275ZM8.87961 0.890471C9.43308 0.890471 9.8903 1.32367 9.8903 1.87721C9.8903 2.43074 9.43308 2.86395 8.87961 2.86395C8.32614 2.86395 7.86892 2.43074 7.86892 1.87721C7.86892 1.34774 8.32614 0.890471 8.87961 0.890471ZM1.90106 9.89145C1.34758 9.89145 0.890368 9.45824 0.890368 8.90471C0.890368 8.35117 1.34758 7.91797 1.90106 7.91797C2.45453 7.91797 2.91174 8.35117 2.91174 8.90471C2.91174 9.43418 2.45453 9.89145 1.90106 9.89145ZM4.37965 5.39096C4.37965 4.83742 4.83686 4.40422 5.39033 4.40422C5.9438 4.40422 6.40102 4.83742 6.40102 5.39096C6.40102 5.94449 5.9438 6.3777 5.39033 6.3777C4.83686 6.3777 4.37965 5.94449 4.37965 5.39096ZM8.87961 9.89145C8.32614 9.89145 7.86892 9.45824 7.86892 8.90471C7.86892 8.35117 8.32614 7.91797 8.87961 7.91797C9.43308 7.91797 9.8903 8.35117 9.8903 8.90471C9.86623 9.43418 9.43308 9.89145 8.87961 9.89145Z" fill="#555555" fill-opacity="0.2"/>
<path d="M16.9651 2.45476C16.9651 2.55103 16.9651 2.62323 16.941 2.69543C16.941 2.76763 16.917 2.81576 16.8929 2.83983C16.8689 2.88796 16.8448 2.91203 16.8207 2.9361C16.7967 2.96016 16.7726 2.96016 16.7485 2.96016H14.7031V4.62077H16.6282C16.6523 4.62077 16.6763 4.62077 16.7004 4.64484C16.7245 4.66891 16.7485 4.69297 16.7485 4.71704C16.7726 4.76517 16.7726 4.81331 16.7967 4.86144C16.7967 4.93364 16.8207 5.00584 16.8207 5.10211C16.8207 5.19837 16.8207 5.27058 16.7967 5.34278C16.7967 5.41498 16.7726 5.46311 16.7485 5.51124C16.7245 5.55938 16.7004 5.58344 16.7004 5.60751C16.6763 5.63158 16.6523 5.63158 16.6282 5.63158H14.7031V7.94199C14.7031 7.96605 14.7031 8.01419 14.679 8.03826C14.655 8.06232 14.6309 8.08639 14.5828 8.11046C14.5346 8.13452 14.4625 8.13452 14.3903 8.15859C14.3181 8.15859 14.1977 8.18266 14.0774 8.18266C13.9571 8.18266 13.8609 8.18266 13.7646 8.15859C13.6924 8.15859 13.6202 8.13452 13.5721 8.11046C13.524 8.08639 13.4999 8.06232 13.4758 8.03826C13.4758 7.99012 13.4758 7.96605 13.4758 7.91792V2.33443C13.4758 2.19003 13.524 2.09376 13.5962 2.02156C13.6443 1.94936 13.7405 1.92529 13.8368 1.92529H16.7726C16.7967 1.92529 16.8207 1.92529 16.8448 1.94936C16.8689 1.97343 16.8929 1.99749 16.917 2.04563C16.941 2.09376 16.941 2.14189 16.9651 2.21409C16.9651 2.26223 16.9651 2.35849 16.9651 2.45476Z" fill="#555555" fill-opacity="0.2"/>
<path d="M21.4412 7.58113C21.4412 7.67739 21.4412 7.74959 21.4171 7.82179C21.4171 7.89399 21.393 7.94213 21.369 7.99026C21.3449 8.0384 21.3449 8.06246 21.3208 8.08653C21.2968 8.1106 21.2727 8.1106 21.2246 8.1106H18.385C18.2888 8.1106 18.1925 8.08653 18.1203 8.01433C18.0481 7.94213 18 7.84586 18 7.70146V2.0939C18 2.06983 18 2.0217 18.0241 1.99763C18.0481 1.97357 18.0722 1.9495 18.1203 1.92543C18.1925 1.9495 18.2406 1.92543 18.3369 1.92543C18.4091 1.92543 18.5294 1.90137 18.6497 1.90137C18.77 1.90137 18.8663 1.90137 18.9626 1.92543C19.0348 1.92543 19.1069 1.9495 19.1551 1.97357C19.2032 1.99763 19.2273 2.0217 19.2513 2.04577C19.2754 2.06983 19.2754 2.0939 19.2754 2.14203V7.12386H21.2486C21.2727 7.12386 21.3208 7.12386 21.3449 7.14792C21.369 7.17199 21.393 7.19606 21.393 7.24419C21.4171 7.29233 21.4171 7.34046 21.4412 7.41266C21.4171 7.41266 21.4412 7.48486 21.4412 7.58113Z" fill="#555555" fill-opacity="0.2"/>
<path d="M25.8687 7.62912C25.8687 7.72539 25.8687 7.79759 25.8446 7.86979C25.8446 7.94199 25.8206 7.99012 25.7965 8.01419C25.7724 8.06232 25.7724 8.08639 25.7484 8.08639C25.7243 8.11046 25.7003 8.11046 25.6762 8.11046H22.5479C22.4516 8.11046 22.3554 8.08639 22.2832 8.01419C22.211 7.94199 22.1628 7.84572 22.1628 7.70132V2.33443C22.1628 2.19003 22.211 2.09376 22.2832 2.02156C22.3554 1.94936 22.4516 1.92529 22.5479 1.92529H25.6521C25.6762 1.92529 25.7003 1.92529 25.7243 1.94936C25.7484 1.97343 25.7724 1.99749 25.7724 2.02156C25.7965 2.06969 25.7965 2.11783 25.8206 2.16596C25.8206 2.23816 25.8446 2.31036 25.8446 2.40663C25.8446 2.5029 25.8446 2.5751 25.8206 2.62323C25.8206 2.69543 25.7965 2.74356 25.7724 2.76763C25.7484 2.81576 25.7484 2.83983 25.7243 2.83983C25.7003 2.8639 25.6762 2.8639 25.6521 2.8639H23.4142V4.38011H25.2912C25.3152 4.38011 25.3393 4.3801 25.3634 4.40417C25.3874 4.42824 25.4115 4.45231 25.4115 4.47637C25.4355 4.52451 25.4355 4.57264 25.4596 4.62077C25.4596 4.69297 25.4837 4.76517 25.4837 4.83737C25.4837 4.93364 25.4837 5.00584 25.4596 5.07804C25.4596 5.15024 25.4355 5.19838 25.4115 5.22244C25.3874 5.27058 25.3634 5.29464 25.3634 5.29464C25.3393 5.31871 25.3152 5.31871 25.2912 5.31871H23.4142V7.05152H25.6521C25.6762 7.05152 25.7003 7.05152 25.7243 7.07558C25.7484 7.09965 25.7724 7.12372 25.7724 7.14778C25.7965 7.19592 25.7965 7.24405 25.8206 7.29219C25.8687 7.43659 25.8687 7.53285 25.8687 7.62912Z" fill="#555555" fill-opacity="0.2"/>
<path d="M31.4516 7.62912C31.4997 7.74945 31.5478 7.82165 31.5719 7.89385C31.5959 7.96605 31.5719 8.01419 31.5478 8.03825C31.4997 8.06232 31.4275 8.08639 31.3312 8.11045C31.235 8.11045 31.0906 8.13452 30.8981 8.13452C30.7537 8.13452 30.6334 8.13452 30.5371 8.13452C30.4409 8.13452 30.3927 8.11045 30.3205 8.11045C30.2724 8.08639 30.2243 8.08639 30.2002 8.06232C30.1762 8.03825 30.1521 8.01419 30.1521 7.96605L28.973 5.72784L27.8179 7.96605C27.7938 8.01419 27.7698 8.03825 27.7457 8.06232C27.7216 8.08639 27.6976 8.11045 27.6254 8.11045C27.5773 8.13452 27.5051 8.13452 27.4088 8.13452C27.3126 8.13452 27.1922 8.13452 27.0478 8.13452C26.8794 8.13452 26.7591 8.13452 26.6628 8.11045C26.5666 8.11045 26.5184 8.08639 26.4703 8.03825C26.4462 8.01419 26.4222 7.94199 26.4462 7.89385C26.4703 7.82165 26.4944 7.74945 26.5666 7.62912L28.0585 4.93364L26.735 2.40663C26.6869 2.28629 26.6388 2.19003 26.6147 2.14189C26.5906 2.06969 26.5906 2.02156 26.6388 1.99749C26.6869 1.97343 26.735 1.94936 26.8553 1.92529C26.9516 1.92529 27.096 1.92529 27.2885 1.92529C27.4329 1.92529 27.5532 1.92529 27.6494 1.92529C27.7457 1.92529 27.8179 1.94936 27.866 1.94936C27.9142 1.97343 27.9623 1.97343 27.9863 1.99749C28.0104 2.02156 28.0345 2.04563 28.0345 2.09376L29.1173 4.13944L30.1762 2.09376C30.2002 2.04563 30.2243 2.02156 30.2484 1.99749C30.2724 1.97343 30.2965 1.94936 30.3446 1.94936C30.3927 1.92529 30.4649 1.92529 30.5371 1.92529C30.6093 1.92529 30.7296 1.92529 30.874 1.92529C31.0425 1.92529 31.1628 1.92529 31.259 1.92529C31.3553 1.92529 31.4275 1.94936 31.4516 1.99749C31.4756 2.02156 31.4997 2.09376 31.4756 2.14189C31.4516 2.21409 31.4275 2.31036 31.3553 2.40663L29.9596 4.93364L31.4516 7.62912Z" fill="#555555" fill-opacity="0.2"/>
<path d="M35.8554 7.58092C35.8554 7.67719 35.8553 7.74939 35.8313 7.82159C35.8313 7.89379 35.8072 7.94192 35.7832 7.99006C35.7591 8.03819 35.735 8.06225 35.735 8.08632C35.711 8.11039 35.6869 8.11039 35.6388 8.11039H32.7752C32.6789 8.11039 32.5826 8.08632 32.5105 8.01412C32.4383 7.94192 32.3901 7.84565 32.3901 7.70125V2.0937C32.3901 2.06963 32.3901 2.02149 32.4142 1.99743C32.4383 1.97336 32.4623 1.94929 32.5105 1.92523C32.5586 1.90116 32.6308 1.90116 32.703 1.87709C32.7752 1.87709 32.8955 1.85303 33.0158 1.85303C33.1361 1.85303 33.2324 1.85303 33.3286 1.87709C33.4008 1.87709 33.473 1.90116 33.5211 1.92523C33.5693 1.94929 33.5933 1.97336 33.6174 1.99743C33.6415 2.02149 33.6415 2.04556 33.6415 2.0937V7.07552H35.6147C35.6388 7.07552 35.6869 7.07552 35.711 7.09958C35.735 7.12365 35.7591 7.14772 35.7591 7.19585C35.7832 7.24399 35.7832 7.29212 35.8072 7.36432C35.8554 7.41245 35.8554 7.48465 35.8554 7.58092Z" fill="#555555" fill-opacity="0.2"/>
<path d="M42.0639 4.95778C42.0639 5.46318 41.9917 5.92045 41.8714 6.32959C41.7511 6.73872 41.5586 7.07566 41.2939 7.36446C41.0292 7.65326 40.7163 7.86986 40.3554 8.01426C39.9704 8.15866 39.5372 8.23086 39.0559 8.23086C38.5746 8.23086 38.1415 8.15866 37.7805 8.03833C37.4196 7.918 37.1067 7.72546 36.8661 7.46073C36.6255 7.19599 36.4329 6.88312 36.3126 6.47399C36.1923 6.06485 36.1201 5.60759 36.1201 5.05405C36.1201 4.54865 36.1923 4.11545 36.3126 3.70631C36.4329 3.29717 36.6255 2.96024 36.8902 2.69551C37.1549 2.4067 37.4677 2.1901 37.8287 2.0457C38.2137 1.9013 38.6468 1.8291 39.1281 1.8291C39.6094 1.8291 40.0185 1.9013 40.3794 2.02164C40.7404 2.14197 41.0532 2.3345 41.2939 2.59924C41.5345 2.86397 41.727 3.17684 41.8473 3.58598C41.9917 3.94698 42.0639 4.40425 42.0639 4.95778ZM40.7163 5.00592C40.7163 4.66898 40.6923 4.38018 40.6441 4.11545C40.596 3.85071 40.4998 3.63411 40.3794 3.44158C40.2591 3.24904 40.0907 3.10464 39.8741 3.00837C39.6575 2.91211 39.4169 2.86397 39.1041 2.86397C38.7912 2.86397 38.5265 2.91211 38.334 3.03244C38.1174 3.15277 37.949 3.29718 37.8287 3.48971C37.7083 3.68224 37.6121 3.89884 37.564 4.16358C37.5158 4.42831 37.4918 4.69305 37.4918 4.98185C37.4918 5.31878 37.5158 5.63165 37.564 5.89639C37.6121 6.16112 37.7083 6.40179 37.8287 6.59432C37.949 6.78686 38.1174 6.93126 38.3099 7.02753C38.5265 7.12379 38.7672 7.17193 39.08 7.17193C39.3928 7.17193 39.6575 7.12379 39.85 7.00346C40.0666 6.88312 40.2351 6.73872 40.3554 6.54619C40.4757 6.35366 40.572 6.11299 40.6201 5.84825C40.6682 5.58352 40.7163 5.31878 40.7163 5.00592Z" fill="#555555" fill-opacity="0.2"/>
<path d="M48.128 2.88783C48.128 2.9841 48.128 3.0563 48.1039 3.1285C48.1039 3.2007 48.0798 3.24884 48.0798 3.29697C48.0558 3.3451 48.0558 3.36917 48.0317 3.36917C48.0076 3.39324 47.9836 3.39324 47.9595 3.39324C47.9114 3.39324 47.8392 3.36917 47.767 3.29697C47.6707 3.24884 47.5504 3.17663 47.406 3.10443C47.2617 3.03223 47.0691 2.9841 46.8526 2.9119C46.636 2.86377 46.3954 2.81563 46.1066 2.81563C45.7938 2.81563 45.529 2.86377 45.2884 2.96003C45.0478 3.0563 44.8312 3.2007 44.6627 3.39324C44.4943 3.58577 44.3499 3.80237 44.2537 4.06711C44.1574 4.33184 44.1093 4.62064 44.1093 4.95758C44.1093 5.31858 44.1574 5.63145 44.2537 5.89618C44.3499 6.16092 44.4702 6.40158 44.6627 6.57005C44.8312 6.76259 45.0478 6.88292 45.2884 6.97919C45.529 7.07545 45.7938 7.12359 46.0825 7.12359C46.2269 7.12359 46.3713 7.09952 46.4916 7.07545C46.636 7.05139 46.7563 7.00325 46.8766 6.93105V5.48705H45.6975C45.6494 5.48705 45.6012 5.46298 45.5531 5.39078C45.529 5.31858 45.505 5.19824 45.505 5.02978C45.505 4.93351 45.505 4.86131 45.529 4.81318C45.529 4.74098 45.5531 4.69284 45.5772 4.66878C45.6012 4.62064 45.6012 4.59658 45.6253 4.59658C45.6494 4.57251 45.6734 4.57251 45.6975 4.57251H47.8151C47.8633 4.57251 47.9114 4.57251 47.9595 4.59658C48.0076 4.62064 48.0317 4.64471 48.0558 4.66878C48.0798 4.69284 48.1039 4.74098 48.128 4.78911C48.152 4.83724 48.152 4.88538 48.152 4.95758V7.46052C48.152 7.55679 48.128 7.62899 48.1039 7.70119C48.0798 7.77339 48.0076 7.82152 47.8873 7.86966C47.7911 7.91779 47.6467 7.96592 47.5023 7.98999C47.3579 8.03813 47.1895 8.06219 47.021 8.11033C46.8526 8.13439 46.6841 8.15846 46.5157 8.18253C46.3472 8.20659 46.1788 8.20659 46.0103 8.20659C45.505 8.20659 45.0718 8.13439 44.6627 7.98999C44.2777 7.84559 43.9408 7.65306 43.6521 7.36426C43.3633 7.07545 43.1708 6.76259 43.0264 6.37752C42.882 5.99245 42.8098 5.55925 42.8098 5.05384C42.8098 4.54844 42.882 4.09117 43.0505 3.68204C43.1948 3.2729 43.4114 2.93597 43.7002 2.64717C43.989 2.35836 44.3258 2.14176 44.7349 1.99736C45.144 1.85296 45.5772 1.78076 46.0825 1.78076C46.3472 1.78076 46.5879 1.80483 46.8285 1.8289C47.0451 1.87703 47.2376 1.9011 47.406 1.9733C47.5745 2.02143 47.7189 2.09363 47.8151 2.14176C47.9354 2.21396 48.0076 2.2621 48.0558 2.31023C48.1039 2.35836 48.128 2.4065 48.152 2.50277C48.128 2.59903 48.128 2.71937 48.128 2.88783Z" fill="#555555" fill-opacity="0.2"/>
</svg>
