<svg width="42" height="48" viewBox="0 0 42 48" fill="none" xmlns="http://www.w3.org/2000/svg">
<path d="M20.973 24C24.1515 24 27.1998 22.7357 29.4473 20.4853C31.6949 18.2348 32.9575 15.1826 32.9575 12C32.9575 8.8174 31.6949 5.76516 29.4473 3.51472C27.1998 1.26428 24.1515 0 20.973 0C17.7945 0 14.7462 1.26428 12.4986 3.51472C10.2511 5.76516 8.98842 8.8174 8.98842 12C8.98842 15.1826 10.2511 18.2348 12.4986 20.4853C14.7462 22.7357 17.7945 24 20.973 24ZM16.6941 28.5C7.47162 28.5 0 35.9812 0 45.2156C0 46.7531 1.24527 48 2.78079 48H39.1652C40.7007 48 41.9459 46.7531 41.9459 45.2156C41.9459 35.9812 34.4743 28.5 25.2518 28.5H16.6941Z" fill="black"/>
</svg>
